<svg xmlns="http://www.w3.org/2000/svg" viewBox="0 0 24 24" fill="currentColor">
  <path d="M23.998 14.07V9.958H19.78c-.186-.707-.463-1.375-.823-1.992l2.98-2.98-2.908-2.91-2.99 2.98c-.618-.358-1.286-.636-1.99-.823V.016H9.94v4.217c-.707.186-1.375.464-1.992.823l-2.98-2.98-2.91 2.908 2.98 2.98c-.36.618-.636 1.286-.823 1.993H0v4.114h4.217c.187.71.464 1.38.824 2l-2.98 2.98 2.91 2.91 2.98-2.98c.62.36 1.29.638 1.99.82v4.22h4.12V19.8c.71-.188 1.38-.465 1.99-.824l2.98 2.982 2.91-2.91-2.98-2.98c.36-.616.64-1.284.828-1.99H24zM12 15.99c-2.197 0-3.977-1.78-3.977-3.976 0-2.197 1.78-3.977 3.977-3.977 2.196 0 3.977 1.78 3.977 3.977S14.197 15.99 12 15.99z"/>
</svg>
